# xmcd CD database file
#
# Track frame offsets:
#	150
#	22602
#	39630
#	57865
#	85937
#	121347
#	131945
#	145747
#	169102
#	185527
#
# Disc length: 2814 seconds
#
# Revision: 4
# Processed by: cddbd v1.5.2PL0 Copyright (c) Steve Scherf et al.
# Submitted via: CDex 1.51
#
DISCID=820afc0a
DTITLE=Matthew Lien  - Caribou Commons ¹¥³À«Å¨¥
DYEAR=1998
DGENRE=New Age
TTITLE0=A Mirror To The Past 
TTITLE1=The Gathering 
TTITLE2=The Calving Grounds 
TTITLE3=Wildflower Waitz,Sheep Creek Waitz,Dead Calf Lament 
TTITLE4=200 Days 
TTITLE5=The Swarm, The Herd 
TTITLE6=Just As It Should be 
TTITLE7=Birds Of Prey
TTITLE8=Blood From A Stone 
TTITLE9=The Land Of The Gwich'in 
EXTD=YEAR: 1998
EXTT0=
EXTT1=
EXTT2=
EXTT3=
EXTT4=
EXTT5=
EXTT6=
EXTT7=
EXTT8=
EXTT9=
PLAYORDER=
